<svg width="49" height="49" viewBox="0 0 49 49" fill="none" xmlns="http://www.w3.org/2000/svg">
    <g clip-path="url(#clip0_285507_286)">
    <path d="M29.3023 20.6698C27.3419 20.6698 25.4988 21.502 24.0282 23.0076C22.5616 21.4866 20.7399 20.6698 18.7442 20.6698C15.2597 20.6698 12.1816 23.1974 11.2589 26.8162C10.7754 28.7119 10.6743 31.7292 12.9367 35.3371C14.9574 38.5594 18.4282 41.5276 23.2525 44.1593C23.4924 44.2902 23.757 44.3555 24.022 44.3555C24.2865 44.3555 24.5515 44.2902 24.7912 44.1595C29.617 41.5278 33.0888 38.5596 35.1104 35.3373C37.3739 31.7294 37.273 28.7123 36.7897 26.8166C35.8666 23.1974 32.7879 20.6698 29.3023 20.6698ZM24.0217 40.9089C13.4763 34.8831 13.9596 29.2286 14.3724 27.6101C14.9229 25.4506 16.7616 23.8831 18.744 23.8831C20.2521 23.8831 21.6385 24.8008 22.6473 26.4673C22.9382 26.948 23.4594 27.2417 24.0215 27.2419C24.0215 27.2419 24.0215 27.2419 24.0217 27.2419C24.5836 27.2419 25.1048 26.9484 25.3958 26.4679C26.4058 24.801 27.7929 23.8831 29.3021 23.8831C31.2857 23.8831 33.125 25.4506 33.6756 27.6101C34.0884 29.2283 34.5708 34.8827 24.0217 40.9089Z" fill="#124C5F"/>
    <path d="M17.0925 17.9149C20.5466 17.9149 23.3567 15.1049 23.3567 11.6511C23.3567 8.19674 20.5466 5.3866 17.0925 5.3866C13.6382 5.3866 10.8278 8.19696 10.8278 11.6511C10.8278 15.1049 13.6382 17.9149 17.0925 17.9149ZM17.0925 8.59991C18.775 8.59991 20.1434 9.96878 20.1434 11.6511C20.1434 13.3331 18.7748 14.7016 17.0925 14.7016C15.41 14.7016 14.0411 13.3331 14.0411 11.6511C14.0411 9.96856 15.4098 8.59991 17.0925 8.59991Z" fill="#124C5F"/>
    <path d="M30.9562 17.9149C34.4103 17.9149 37.2204 15.1049 37.2204 11.6511C37.2204 8.19674 34.4103 5.3866 30.9562 5.3866C27.5021 5.3866 24.692 8.19696 24.692 11.6511C24.6917 15.1049 27.5019 17.9149 30.9562 17.9149ZM30.9562 8.59991C32.6385 8.59991 34.0071 9.96878 34.0071 11.6511C34.0071 13.3331 32.6385 14.7016 30.9562 14.7016C29.2737 14.7016 27.9053 13.3331 27.9053 11.6511C27.9051 9.96856 29.2737 8.59991 30.9562 8.59991Z" fill="#124C5F"/>
    <path d="M5.8219 14.8856C2.62487 14.8856 0.0238037 17.4869 0.0238037 20.6844C0.0238037 23.8814 2.62487 26.4822 5.8219 26.4822C9.01936 26.4822 11.6204 23.8812 11.6204 20.6844C11.6206 17.4869 9.01936 14.8856 5.8219 14.8856ZM5.8219 23.2689C4.39669 23.2689 3.23711 22.1096 3.23711 20.6844C3.23711 19.2589 4.39669 18.0991 5.8219 18.0991C7.24733 18.0991 8.40712 19.2589 8.40712 20.6844C8.40733 22.1096 7.24754 23.2689 5.8219 23.2689Z" fill="#124C5F"/>
    <path d="M42.2252 14.8856C39.028 14.8856 36.4271 17.4869 36.4271 20.6841C36.4271 23.8812 39.0282 26.482 42.2252 26.482C45.4227 26.482 48.0237 23.881 48.0237 20.6841C48.0237 17.4869 45.4227 14.8856 42.2252 14.8856ZM42.2252 23.2689C40.8 23.2689 39.6404 22.1093 39.6404 20.6844C39.6404 19.2589 40.8 18.0991 42.2252 18.0991C43.6506 18.0991 44.8104 19.2589 44.8104 20.6844C44.8104 22.1096 43.6506 23.2689 42.2252 23.2689Z" fill="#124C5F"/>
    </g>
    <defs>
    <clipPath id="clip0_285507_286">
    <rect width="48" height="48" fill="white" transform="translate(0.0238037 0.870819)"/>
    </clipPath>
    </defs>
    </svg>
    