<svg width="94" height="101" viewBox="0 0 94 101" fill="none" xmlns="http://www.w3.org/2000/svg">
    <path d="M44.8307 48.4321C49.8402 55.7677 56.6902 52.5823 66.384 55.1082C80.5334 58.5256 85.8506 51.1958 83.0591 43.8125C80.3589 36.731 71.5587 36.2367 67.0775 29.7252C62.5964 23.2137 64.6195 13.2964 59.2314 8.39946C53.8433 3.50247 46.067 7.31538 45.1067 23.5138C44.5579 34.6147 40.0757 41.0151 44.8307 48.4321Z" fill="#90A1FF"/>
    <path d="M52.2595 70.2223C54.0671 62.3603 59.4234 57.0044 63.8984 58.883C68.3734 60.7615 70.7474 68.6095 68.7766 76.8547C66.9689 84.7167 61.6127 90.0725 57.1377 88.194C52.6627 86.3155 50.5431 78.386 52.2595 70.2223Z" fill="#90A1FF"/>
    <path d="M28.3402 34.508C35.6857 34.8058 41.3159 30.3554 41.0358 24.8169C40.7558 19.2785 34.6044 14.6258 27.3503 14.6299C20.0048 14.3321 14.3746 18.7824 14.6546 24.3209C14.8434 29.5575 20.9947 34.2103 28.3402 34.508Z" fill="#90A1FF"/>
    <path d="M30.0342 64.0923C35.1165 57.8309 42.3317 55.8529 46.0825 59.9496C49.8332 64.0464 48.8083 72.651 43.726 78.9124C38.6436 85.1738 31.4284 87.1518 27.6777 83.0551C24.1814 78.8769 25.0431 70.6556 30.0342 64.0923Z" fill="#90A1FF"/>
    <path d="M27.4837 60.2742C34.1511 56.4851 37.8505 49.342 35.3524 43.8512C32.9457 38.6623 25.5807 37.3775 18.6589 41.248C11.9915 45.0371 8.29208 52.1802 10.7902 57.671C13.197 62.8599 20.8164 64.0633 27.4837 60.2742Z" fill="#90A1FF"/>
    </svg>
    