<svg width="84" height="86" viewBox="0 0 84 86" fill="none" xmlns="http://www.w3.org/2000/svg">
    <path d="M41.3222 41.0609C38.0044 35.4282 32.1051 37.0671 24.4232 34.6043C13.2314 31.0712 7.90329 36.0266 9.30957 41.4646C10.5785 46.7867 17.9994 47.8483 20.518 53.0432C23.3991 58.0714 20.4056 64.9957 24.3249 69.0096C28.1068 72.9078 34.9811 70.91 37.8922 59.1918C39.7871 51.3411 44.4148 46.9761 41.3222 41.0609Z" fill="#FF6E9F"/>
    <path d="M37.9905 24.7865C35.5106 30.4903 30.5093 33.5953 26.9499 32.0108C23.3904 30.4262 22.5471 24.282 25.1644 18.694C27.6444 12.9902 32.5083 9.76936 36.2051 11.4697C39.9018 13.1701 40.4705 19.0827 37.9905 24.7865Z" fill="#FF6E9F"/>
    <path d="M53.1679 52.7046C47.1586 51.8887 41.9953 54.6209 41.5038 58.6945C41.0122 62.7681 45.544 66.59 51.5285 67.1488C57.5377 67.9648 62.701 65.2326 63.1926 61.159C63.6841 57.0854 59.1524 53.2635 53.1679 52.7046Z" fill="#FF6E9F"/>
    <path d="M55.502 31.0505C50.5996 35.1838 44.4888 35.9357 41.7808 32.707C39.0727 29.4783 41.0034 23.3113 45.9057 19.1779C50.8081 15.0446 56.9189 14.2927 59.627 17.5214C62.335 20.7501 60.4043 26.9171 55.502 31.0505Z" fill="#FF6E9F"/>
    <path d="M57.0484 34.008C50.9486 36.1865 47.2574 41.1051 48.6527 45.1164C50.0479 49.1278 55.994 50.5991 62.0939 48.4206C68.1937 46.242 71.8849 41.3235 70.4896 37.3122C69.0943 33.3008 63.1482 31.8295 57.0484 34.008Z" fill="#FF6E9F"/>
    </svg>
    