<svg width="79" height="82" viewBox="0 0 79 82" fill="none" xmlns="http://www.w3.org/2000/svg">
    <path d="M38.5615 40.687C32.1027 42.0797 31.5891 48.333 26.551 54.9586C19.3223 64.6525 22.0193 71.5115 27.5286 72.0237C33.038 72.5359 36.5072 65.7001 42.382 64.9818C48.1109 63.8928 53.5817 69.1665 58.545 66.6703C63.5812 64.3595 64.0224 56.8421 54.1738 50.1541C47.5716 45.7825 45.0565 39.9263 38.5615 40.687Z" fill="#D9A6FF"/>
    <path d="M20.9265 37.9794C25.258 42.8256 26.7134 49.0975 24.2059 51.9746C21.5247 54.924 15.8643 53.3815 11.5329 48.5353C7.20145 43.6891 5.74605 37.4172 8.25352 34.5401C10.9347 31.5908 16.5951 33.1332 20.9265 37.9794Z" fill="#D9A6FF"/>
    <path d="M53.2146 32.598C50.3936 38.3365 51.0694 44.3592 54.5349 46.1782C58.0004 47.9971 63.161 44.9808 65.982 39.2424C68.803 33.504 68.1272 27.4812 64.6617 25.6622C61.0144 23.9189 55.8538 26.9353 53.2146 32.598Z" fill="#D9A6FF"/>
    <path d="M33.8176 23.3134C36.1781 29.8508 34.7511 36.3688 30.884 37.7497C27.0169 39.1305 21.9732 34.8487 19.6126 28.3113C17.2521 21.7739 18.6792 15.2559 22.5462 13.875C26.4133 12.4941 31.457 16.776 33.8176 23.3134Z" fill="#D9A6FF"/>
    <path d="M37.2426 22.5153C37.1409 29.0138 40.3765 34.1239 44.2769 34.1674C48.353 34.1379 51.653 29.0163 51.8251 22.6968C51.9268 16.1984 48.6912 11.0883 44.7908 11.0447C40.82 10.8222 37.3443 16.0169 37.2426 22.5153Z" fill="#D9A6FF"/>
    </svg>
    